Genre: Horror | Thriller
Language:English
IMDb:http://www.imdb.com/title/tt1345772/
Source:BluRay.DTS.x264.DNL
Subtitles:Romana

Format : MPEG-4
Format profile : Base Media
Codec ID : isom
File size : 2.22 GiB
Duration : 1h 33mn
Overall bit rate : 3 414 Kbps

Video
ID : 1
Format : AVC
Format/Info : Advanced Video Codec
Format profile : High@L4.1
Format settings, CABAC : Yes
Format settings, ReFrames : 3 frames
Codec ID : avc1
Codec ID/Info : Advanced Video Coding
Duration : 1h 33mn
Bit rate mode : Variable
Bit rate : 3 000 Kbps
Maximum bit rate : 16.5 Mbps
Width : 1 280 pixels
Height : 544 pixels
Display aspect ratio : 2.35:1
Frame rate mode : Constant
Frame rate : 23.976 fps
Color space : YUV
Chroma subsampling : 4:2:0
Bit depth : 8 bits
Scan type : Progressive
Bits/(Pixel*Frame) : 0.180
Stream size : 1.93 GiB (87%)
Writing library : x264

Audio
ID : 2
Format : AAC
Format/Info : Advanced Audio Codec
Format version : Version 4
Format profile : LC
Format settings, SBR : No
Codec ID : 40
Duration : 1h 33mn
Bit rate mode : Variable
Bit rate : 447 Kbps
Maximum bit rate : 505 Kbps
Channel(s) : 6 channels
Channel positions : Front: L C R, Side: L R, LFE
Sampling rate : 48.0 KHz
Stream size : 298 MiB (13%)


Plot:
While traveling across country with her fiancΘ, Beth wakes alone in an isolated clinic to a mother's worst nightmare. Just how far will she go to save her child?


Screens:
 
http://www.pix2links.com/images/61601564187775275209.png 
http://www.pix2links.com/images/80707974320997122954.png 
http://www.pix2links.com/images/10921468631235596449.png 
http://www.pix2links.com/images/74464816179141257764.png 
http://www.pix2links.com/images/56176345670117302756.png 
http://www.pix2links.com/images/51052956758114037474.png

Greets:

INK,CRYS,IMAGINE,LKRG,FXG,3Li,FLAWL3SS,TA,iLLUSiON,ViSiON,DTRG SAFCuk009,LU,TheFalcon007,MYSTiC,PrisM,Noir,WBZ,LAP,Rx,Kingdom,SAFCuk009+Fabreezy,HDLiTE,TWiZTED,ExtraTorrentRG.ELEKTRI4KA,MAGNAT,CM8
And to all the other p2p grps past and present.